<svg width="743" height="148" viewBox="0 0 743 148" fill="none" xmlns="http://www.w3.org/2000/svg">
<path d="M86.666 55.3398H79V32.3418H163.326V70.6719H140.328V55.3398H109.664V70.6719H132.662V93.6699H109.664V147.332L86.666 124.334V55.3398ZM201.656 132H178.658V55.3398H170.992V32.3418H201.656V132ZM293.648 70.6719H270.65V55.3398H259.151C251.741 55.3398 245.404 57.9718 240.14 63.2358C234.927 68.4487 232.32 74.7604 232.32 82.1709C232.32 89.5814 234.927 95.9186 240.14 101.183C245.404 106.396 251.741 109.002 259.151 109.002H278.316V132H259.151C245.404 132 233.649 127.145 223.888 117.435C214.177 107.673 209.322 95.9186 209.322 82.1709C209.322 68.4232 214.177 56.6942 223.888 46.9839C233.649 37.2225 245.404 32.3418 259.151 32.3418H293.648V70.6719Z" fill="white"/>
<path d="M324.312 55.3398H301.314V32.3418H370.309V55.3398H347.311V147.332L324.312 124.334V55.3398ZM427.804 109.002C435.214 109.002 441.526 106.396 446.739 101.183C452.003 95.9186 454.635 89.5814 454.635 82.1709C454.635 74.7604 452.003 68.4487 446.739 63.2358C441.526 57.9718 435.214 55.3398 427.804 55.3398C420.393 55.3398 414.056 57.9718 408.792 63.2358C403.579 68.4487 400.973 74.7604 400.973 82.1709C400.973 89.5814 403.579 95.9186 408.792 101.183C414.056 106.396 420.393 109.002 427.804 109.002ZM427.804 132C414.056 132 402.301 127.145 392.54 117.435C382.83 107.673 377.975 95.9186 377.975 82.1709C377.975 68.4232 382.83 56.6942 392.54 46.9839C402.301 37.2225 414.056 32.3418 427.804 32.3418C441.551 32.3418 453.28 37.2225 462.991 46.9839C472.752 56.6942 477.633 68.4232 477.633 82.1709C477.633 95.9186 472.752 107.673 462.991 117.435C453.28 127.145 441.551 132 427.804 132ZM538.961 32.3418C547.445 32.3418 554.676 35.3315 560.656 41.311C566.635 47.2905 569.625 54.5221 569.625 63.0059C569.625 71.4896 566.635 78.7212 560.656 84.7007C554.676 90.6802 547.445 93.6699 538.961 93.6699H531.295L515.963 78.3379V132H492.965V55.3398H485.299V32.3418H538.961ZM538.961 55.3398H515.963V70.6719H538.961C541.056 70.6719 542.845 69.9308 544.327 68.4487C545.86 66.9155 546.627 65.1012 546.627 63.0059C546.627 60.9105 545.86 59.1217 544.327 57.6396C542.845 56.1064 541.056 55.3398 538.961 55.3398ZM607.955 132H584.957V55.3398H577.291V32.3418H607.955V132ZM661.617 70.5952L626.89 132H600.289L661.617 24.5991L722.945 132H646.285V109.002H683.312L661.617 70.5952Z" fill="black"/>
<mask id="mask0_2_37" style="mask-type:alpha" maskUnits="userSpaceOnUse" x="0" y="0" width="482" height="148">
<path d="M98.978 0H308.86H482L274.143 148H0L98.978 0Z" fill="black"/>
</mask>
<g mask="url(#mask0_2_37)">
<g filter="url(#filter0_i_2_37)">
<path d="M86.666 55.3398H79V32.3418H163.326V70.6719H140.328V55.3398H109.664V70.6719H132.662V93.6699H109.664V147.332L86.666 124.334V55.3398ZM201.656 132H178.658V55.3398H170.992V32.3418H201.656V132ZM293.648 70.6719H270.65V55.3398H259.151C251.741 55.3398 245.404 57.9718 240.14 63.2358C234.927 68.4487 232.32 74.7604 232.32 82.1709C232.32 89.5814 234.927 95.9186 240.14 101.183C245.404 106.396 251.741 109.002 259.151 109.002H278.316V132H259.151C245.404 132 233.649 127.145 223.888 117.435C214.177 107.673 209.322 95.9186 209.322 82.1709C209.322 68.4232 214.177 56.6942 223.888 46.9839C233.649 37.2225 245.404 32.3418 259.151 32.3418H293.648V70.6719ZM324.312 55.3398H301.314V32.3418H370.309V55.3398H347.311V147.332L324.312 124.334V55.3398ZM427.804 109.002C435.214 109.002 441.526 106.396 446.739 101.183C452.003 95.9186 454.635 89.5814 454.635 82.1709C454.635 74.7604 452.003 68.4487 446.739 63.2358C441.526 57.9718 435.214 55.3398 427.804 55.3398C420.393 55.3398 414.056 57.9718 408.792 63.2358C403.579 68.4487 400.973 74.7604 400.973 82.1709C400.973 89.5814 403.579 95.9186 408.792 101.183C414.056 106.396 420.393 109.002 427.804 109.002ZM427.804 132C414.056 132 402.301 127.145 392.54 117.435C382.83 107.673 377.975 95.9186 377.975 82.1709C377.975 68.4232 382.83 56.6942 392.54 46.9839C402.301 37.2225 414.056 32.3418 427.804 32.3418C441.551 32.3418 453.28 37.2225 462.991 46.9839C472.752 56.6942 477.633 68.4232 477.633 82.1709C477.633 95.9186 472.752 107.673 462.991 117.435C453.28 127.145 441.551 132 427.804 132ZM538.961 32.3418C547.445 32.3418 554.676 35.3315 560.656 41.311C566.635 47.2905 569.625 54.5221 569.625 63.0059C569.625 71.4896 566.635 78.7212 560.656 84.7007C554.676 90.6802 547.445 93.6699 538.961 93.6699H531.295L515.963 78.3379V132H492.965V55.3398H485.299V32.3418H538.961ZM538.961 55.3398H515.963V70.6719H538.961C541.056 70.6719 542.845 69.9308 544.327 68.4487C545.86 66.9155 546.627 65.1012 546.627 63.0059C546.627 60.9105 545.86 59.1217 544.327 57.6396C542.845 56.1064 541.056 55.3398 538.961 55.3398ZM607.955 132H584.957V55.3398H577.291V32.3418H607.955V132ZM661.617 70.5952L626.89 132H600.289L661.617 24.5991L722.945 132H646.285V109.002H683.312L661.617 70.5952Z" fill="white"/>
</g>
<path d="M86.666 55.3398H87.666V54.3398H86.666V55.3398ZM79 55.3398H78V56.3398H79V55.3398ZM79 32.3418V31.3418H78V32.3418H79ZM163.326 32.3418H164.326V31.3418H163.326V32.3418ZM163.326 70.6719V71.6719H164.326V70.6719H163.326ZM140.328 70.6719H139.328V71.6719H140.328V70.6719ZM140.328 55.3398H141.328V54.3398H140.328V55.3398ZM109.664 55.3398V54.3398H108.664V55.3398H109.664ZM109.664 70.6719H108.664V71.6719H109.664V70.6719ZM132.662 70.6719H133.662V69.6719H132.662V70.6719ZM132.662 93.6699V94.6699H133.662V93.6699H132.662ZM109.664 93.6699V92.6699H108.664V93.6699H109.664ZM109.664 147.332L108.957 148.039L110.664 149.746V147.332H109.664ZM86.666 124.334H85.666V124.748L85.9589 125.041L86.666 124.334ZM86.666 54.3398H79V56.3398H86.666V54.3398ZM80 55.3398V32.3418H78V55.3398H80ZM79 33.3418H163.326V31.3418H79V33.3418ZM162.326 32.3418V70.6719H164.326V32.3418H162.326ZM163.326 69.6719H140.328V71.6719H163.326V69.6719ZM141.328 70.6719V55.3398H139.328V70.6719H141.328ZM140.328 54.3398H109.664V56.3398H140.328V54.3398ZM108.664 55.3398V70.6719H110.664V55.3398H108.664ZM109.664 71.6719H132.662V69.6719H109.664V71.6719ZM131.662 70.6719V93.6699H133.662V70.6719H131.662ZM132.662 92.6699H109.664V94.6699H132.662V92.6699ZM108.664 93.6699V147.332H110.664V93.6699H108.664ZM110.371 146.625L87.3731 123.627L85.9589 125.041L108.957 148.039L110.371 146.625ZM87.666 124.334V55.3398H85.666V124.334H87.666ZM201.656 132V133H202.656V132H201.656ZM178.658 132H177.658V133H178.658V132ZM178.658 55.3398H179.658V54.3398H178.658V55.3398ZM170.992 55.3398H169.992V56.3398H170.992V55.3398ZM170.992 32.3418V31.3418H169.992V32.3418H170.992ZM201.656 32.3418H202.656V31.3418H201.656V32.3418ZM201.656 131H178.658V133H201.656V131ZM179.658 132V55.3398H177.658V132H179.658ZM178.658 54.3398H170.992V56.3398H178.658V54.3398ZM171.992 55.3398V32.3418H169.992V55.3398H171.992ZM170.992 33.3418H201.656V31.3418H170.992V33.3418ZM200.656 32.3418V132H202.656V32.3418H200.656ZM293.648 70.6719V71.6719H294.648V70.6719H293.648ZM270.65 70.6719H269.65V71.6719H270.65V70.6719ZM270.65 55.3398H271.65V54.3398H270.65V55.3398ZM240.14 63.2358L239.433 62.5287L240.14 63.2358ZM240.14 101.183L239.429 101.886L239.436 101.893L240.14 101.183ZM278.316 109.002H279.316V108.002H278.316V109.002ZM278.316 132V133H279.316V132H278.316ZM223.888 117.435L223.179 118.14L223.182 118.144L223.888 117.435ZM223.888 46.9839L223.181 46.2768L223.888 46.9839ZM293.648 32.3418H294.648V31.3418H293.648V32.3418ZM293.648 69.6719H270.65V71.6719H293.648V69.6719ZM271.65 70.6719V55.3398H269.65V70.6719H271.65ZM270.65 54.3398H259.151V56.3398H270.65V54.3398ZM259.151 54.3398C251.474 54.3398 244.883 57.0782 239.433 62.5287L240.847 63.9429C245.924 58.8655 252.007 56.3398 259.151 56.3398V54.3398ZM239.433 62.5287C234.031 67.9303 231.32 74.4968 231.32 82.1709H233.32C233.32 75.0241 235.822 68.9672 240.847 63.9429L239.433 62.5287ZM231.32 82.1709C231.32 89.8448 234.031 96.435 239.429 101.886L240.85 100.479C235.823 95.4023 233.32 89.3179 233.32 82.1709H231.32ZM239.436 101.893C244.887 107.292 251.477 110.002 259.151 110.002V108.002C252.004 108.002 245.92 105.499 240.843 100.472L239.436 101.893ZM259.151 110.002H278.316V108.002H259.151V110.002ZM277.316 109.002V132H279.316V109.002H277.316ZM278.316 131H259.151V133H278.316V131ZM259.151 131C245.668 131 234.167 126.25 224.593 116.726L223.182 118.144C233.131 128.04 245.139 133 259.151 133V131ZM224.597 116.729C215.072 107.155 210.322 95.6539 210.322 82.1709H208.322C208.322 96.1834 213.282 108.191 223.179 118.14L224.597 116.729ZM210.322 82.1709C210.322 68.6881 215.072 57.2135 224.595 47.691L223.181 46.2768C213.283 56.1748 208.322 68.1583 208.322 82.1709H210.322ZM224.595 47.691C234.17 38.1163 245.67 33.3418 259.151 33.3418V31.3418C245.137 31.3418 233.129 36.3287 223.181 46.2768L224.595 47.691ZM259.151 33.3418H293.648V31.3418H259.151V33.3418ZM292.648 32.3418V70.6719H294.648V32.3418H292.648ZM324.312 55.3398H325.312V54.3398H324.312V55.3398ZM301.314 55.3398H300.314V56.3398H301.314V55.3398ZM301.314 32.3418V31.3418H300.314V32.3418H301.314ZM370.309 32.3418H371.309V31.3418H370.309V32.3418ZM370.309 55.3398V56.3398H371.309V55.3398H370.309ZM347.311 55.3398V54.3398H346.311V55.3398H347.311ZM347.311 147.332L346.603 148.039L348.311 149.746V147.332H347.311ZM324.312 124.334H323.312V124.748L323.605 125.041L324.312 124.334ZM324.312 54.3398H301.314V56.3398H324.312V54.3398ZM302.314 55.3398V32.3418H300.314V55.3398H302.314ZM301.314 33.3418H370.309V31.3418H301.314V33.3418ZM369.309 32.3418V55.3398H371.309V32.3418H369.309ZM370.309 54.3398H347.311V56.3398H370.309V54.3398ZM346.311 55.3398V147.332H348.311V55.3398H346.311ZM348.018 146.625L325.02 123.627L323.605 125.041L346.603 148.039L348.018 146.625ZM325.312 124.334V55.3398H323.312V124.334H325.312ZM446.739 63.2358L446.028 63.9395L446.035 63.9464L446.739 63.2358ZM408.792 63.2358L408.085 62.5287L408.792 63.2358ZM408.792 101.183L408.081 101.886L408.088 101.893L408.792 101.183ZM392.54 117.435L391.831 118.14L391.835 118.144L392.54 117.435ZM392.54 46.9839L391.833 46.2768L392.54 46.9839ZM462.991 46.9839L462.282 47.6891L462.285 47.6928L462.991 46.9839ZM427.804 110.002C435.478 110.002 442.044 107.291 447.446 101.89L446.032 100.476C441.007 105.5 434.951 108.002 427.804 108.002V110.002ZM447.446 101.89C452.896 96.4392 455.635 89.848 455.635 82.1709H453.635C453.635 89.3148 451.109 95.3981 446.032 100.476L447.446 101.89ZM455.635 82.1709C455.635 74.4936 452.896 67.9261 447.442 62.5253L446.035 63.9464C451.109 68.9714 453.635 75.0272 453.635 82.1709H455.635ZM447.449 62.5322C442.049 57.0785 435.481 54.3398 427.804 54.3398V56.3398C434.947 56.3398 441.003 58.8652 446.028 63.9395L447.449 62.5322ZM427.804 54.3398C420.127 54.3398 413.535 57.0782 408.085 62.5287L409.499 63.9429C414.577 58.8655 420.66 56.3398 427.804 56.3398V54.3398ZM408.085 62.5287C402.683 67.9303 399.973 74.4968 399.973 82.1709H401.973C401.973 75.0241 404.475 68.9672 409.499 63.9429L408.085 62.5287ZM399.973 82.1709C399.973 89.8448 402.683 96.435 408.081 101.886L409.503 100.479C404.475 95.4023 401.973 89.3179 401.973 82.1709H399.973ZM408.088 101.893C413.54 107.292 420.13 110.002 427.804 110.002V108.002C420.657 108.002 414.572 105.499 409.496 100.472L408.088 101.893ZM427.804 131C414.321 131 402.82 126.25 393.245 116.726L391.835 118.144C401.783 128.04 413.791 133 427.804 133V131ZM393.249 116.729C383.725 107.155 378.975 95.6539 378.975 82.1709H376.975C376.975 96.1834 381.935 108.191 391.831 118.14L393.249 116.729ZM378.975 82.1709C378.975 68.6881 383.725 57.2135 393.247 47.691L391.833 46.2768C381.935 56.1748 376.975 68.1583 376.975 82.1709H378.975ZM393.247 47.691C402.822 38.1163 414.322 33.3418 427.804 33.3418V31.3418C413.79 31.3418 401.781 36.3287 391.833 46.2768L393.247 47.691ZM427.804 33.3418C441.285 33.3418 452.759 38.1161 462.282 47.6891L463.7 46.2786C453.802 36.3289 441.818 31.3418 427.804 31.3418V33.3418ZM462.285 47.6928C471.859 57.2158 476.633 68.6898 476.633 82.1709H478.633C478.633 68.1566 473.646 56.1726 463.696 46.2749L462.285 47.6928ZM476.633 82.1709C476.633 95.6522 471.858 107.153 462.284 116.727L463.698 118.142C473.646 108.194 478.633 96.1851 478.633 82.1709H476.633ZM462.284 116.727C452.761 126.25 441.287 131 427.804 131V133C441.816 133 453.8 128.04 463.698 118.142L462.284 116.727ZM531.295 93.6699L530.588 94.377L530.881 94.6699H531.295V93.6699ZM515.963 78.3379L516.67 77.6308L514.963 75.9237V78.3379H515.963ZM515.963 132V133H516.963V132H515.963ZM492.965 132H491.965V133H492.965V132ZM492.965 55.3398H493.965V54.3398H492.965V55.3398ZM485.299 55.3398H484.299V56.3398H485.299V55.3398ZM485.299 32.3418V31.3418H484.299V32.3418H485.299ZM515.963 55.3398V54.3398H514.963V55.3398H515.963ZM515.963 70.6719H514.963V71.6719H515.963V70.6719ZM544.327 57.6396L543.608 58.3347L543.62 58.3469L543.632 58.3586L544.327 57.6396ZM538.961 33.3418C547.18 33.3418 554.157 36.2269 559.949 42.0181L561.363 40.6039C555.195 34.4362 547.709 31.3418 538.961 31.3418V33.3418ZM559.949 42.0181C565.74 47.8094 568.625 54.7864 568.625 63.0059H570.625C570.625 54.2579 567.531 46.7716 561.363 40.6039L559.949 42.0181ZM568.625 63.0059C568.625 71.2253 565.74 78.2023 559.949 83.9936L561.363 85.4078C567.531 79.2401 570.625 71.7538 570.625 63.0059H568.625ZM559.949 83.9936C554.157 89.7848 547.18 92.6699 538.961 92.6699V94.6699C547.709 94.6699 555.195 91.5755 561.363 85.4078L559.949 83.9936ZM538.961 92.6699H531.295V94.6699H538.961V92.6699ZM532.002 92.9628L516.67 77.6308L515.256 79.045L530.588 94.377L532.002 92.9628ZM514.963 78.3379V132H516.963V78.3379H514.963ZM515.963 131H492.965V133H515.963V131ZM493.965 132V55.3398H491.965V132H493.965ZM492.965 54.3398H485.299V56.3398H492.965V54.3398ZM486.299 55.3398V32.3418H484.299V55.3398H486.299ZM485.299 33.3418H538.961V31.3418H485.299V33.3418ZM538.961 54.3398H515.963V56.3398H538.961V54.3398ZM514.963 55.3398V70.6719H516.963V55.3398H514.963ZM515.963 71.6719H538.961V69.6719H515.963V71.6719ZM538.961 71.6719C541.322 71.6719 543.365 70.8254 545.034 69.1558L543.62 67.7416C542.325 69.0362 540.791 69.6719 538.961 69.6719V71.6719ZM545.034 69.1558C546.748 67.4424 547.627 65.3766 547.627 63.0059H545.627C545.627 64.8259 544.973 66.3887 543.62 67.7416L545.034 69.1558ZM547.627 63.0059C547.627 60.634 546.746 58.5874 545.022 56.9207L543.632 58.3586C544.974 59.6561 545.627 61.1869 545.627 63.0059H547.627ZM545.046 56.9446C543.379 55.2204 541.333 54.3398 538.961 54.3398V56.3398C540.78 56.3398 542.311 56.9925 543.608 58.3347L545.046 56.9446ZM607.955 132V133H608.955V132H607.955ZM584.957 132H583.957V133H584.957V132ZM584.957 55.3398H585.957V54.3398H584.957V55.3398ZM577.291 55.3398H576.291V56.3398H577.291V55.3398ZM577.291 32.3418V31.3418H576.291V32.3418H577.291ZM607.955 32.3418H608.955V31.3418H607.955V32.3418ZM607.955 131H584.957V133H607.955V131ZM585.957 132V55.3398H583.957V132H585.957ZM584.957 54.3398H577.291V56.3398H584.957V54.3398ZM578.291 55.3398V32.3418H576.291V55.3398H578.291ZM577.291 33.3418H607.955V31.3418H577.291V33.3418ZM606.955 32.3418V132H608.955V32.3418H606.955ZM661.617 70.5952L662.488 70.1034L661.618 68.5629L660.747 70.1029L661.617 70.5952ZM626.89 132V133H627.473L627.761 132.492L626.89 132ZM600.289 132L599.421 131.504L598.566 133H600.289V132ZM661.617 24.5991L662.486 24.1032L661.617 22.5825L660.749 24.1032L661.617 24.5991ZM722.945 132V133H724.668L723.814 131.504L722.945 132ZM646.285 132H645.285V133H646.285V132ZM646.285 109.002V108.002H645.285V109.002H646.285ZM683.312 109.002V110.002H685.025L684.183 108.51L683.312 109.002ZM660.747 70.1029L626.02 131.508L627.761 132.492L662.488 71.0875L660.747 70.1029ZM626.89 131H600.289V133H626.89V131ZM601.157 132.496L662.486 25.095L660.749 24.1032L599.421 131.504L601.157 132.496ZM660.749 25.095L722.077 132.496L723.814 131.504L662.486 24.1032L660.749 25.095ZM722.945 131H646.285V133H722.945V131ZM647.285 132V109.002H645.285V132H647.285ZM646.285 110.002H683.312V108.002H646.285V110.002ZM684.183 108.51L662.488 70.1034L660.746 71.087L682.441 109.494L684.183 108.51Z" fill="black"/>
</g>
<defs>
<filter id="filter0_i_2_37" x="79" y="24.5991" width="644.945" height="124.733" filterUnits="userSpaceOnUse" color-interpolation-filters="sRGB">
<feFlood flood-opacity="0" result="BackgroundImageFix"/>
<feBlend mode="normal" in="SourceGraphic" in2="BackgroundImageFix" result="shape"/>
<feColorMatrix in="SourceAlpha" type="matrix" values="0 0 0 0 0 0 0 0 0 0 0 0 0 0 0 0 0 0 127 0" result="hardAlpha"/>
<feOffset dx="1" dy="2"/>
<feGaussianBlur stdDeviation="4.5"/>
<feComposite in2="hardAlpha" operator="arithmetic" k2="-1" k3="1"/>
<feColorMatrix type="matrix" values="0 0 0 0 0 0 0 0 0 0 0 0 0 0 0 0 0 0 0.84 0"/>
<feBlend mode="normal" in2="shape" result="effect1_innerShadow_2_37"/>
</filter>
</defs>
</svg>
